<svg width="512" height="140" viewBox="0 0 512 140" fill="none" xmlns="http://www.w3.org/2000/svg">
<path d="M32.1976 40.2387L43.2471 53.3077H45.0541L56.6306 40.0699V66.9861H83.3882V5.07227H59.3035L44.7153 23.2977L29.6941 5.07227H5.34589V66.9861H32.1976V40.2387Z" fill="white"/>
<path d="M114.635 41.6168H148.047V29.2322H114.635V25.0227H149.6V5.07227H88.913V66.9861H150.372V46.1732H114.635V41.6168Z" fill="white"/>
<path d="M384.311 66.9861H411.934V28.8947H430.231V5.07227H366.353V28.8947H384.311V66.9861Z" fill="white"/>
<path d="M46.4376 102.284C46.4376 105.612 45.8635 107.947 44.7153 109.297C43.5671 110.647 41.8918 111.322 39.7082 111.322C37.4024 111.322 35.68 110.647 34.5318 109.297C33.3835 107.947 32.8094 105.612 32.8094 102.284V72.1055H4.74353V102.284C4.74353 109.906 5.85412 116.188 8.06588 121.119C10.2776 126.05 13.92 129.716 18.9835 132.126C21.5153 133.269 24.4894 134.151 27.9153 134.751C31.3412 135.351 35.2094 135.651 39.5294 135.651C50.8706 135.651 59.5294 133.026 65.5153 127.785C71.5012 122.544 74.4941 114.041 74.4941 102.294V72.1055H46.4376V102.284Z" fill="white"/>
<path d="M346.673 99.6217L325.092 72.1055H299.285V131.141L276.235 72.1055H244.122L219.256 134.019H247.228L249.732 126.285H270.014L272.518 134.019H299.275H300.395H325.346V105.209L347.614 134.019H372.649V72.1055H346.664V99.6217H346.673ZM268.414 105.622C268.301 106.597 268.141 107.431 267.944 108.134C267.511 109.616 266.673 110.675 265.421 111.322C264.169 111.959 262.306 112.288 259.84 112.288C258.664 112.288 257.619 112.213 256.696 112.053C255.774 111.894 255.002 111.659 254.381 111.35C253.167 110.722 252.339 109.691 251.887 108.247C251.435 106.803 251.209 104.834 251.209 102.341C251.209 101.009 251.256 99.8373 251.36 98.7967C251.454 97.7654 251.624 96.8935 251.859 96.1904C252.254 94.7466 253.073 93.7528 254.325 93.2091C255.576 92.6653 257.421 92.3934 259.849 92.3934C261.064 92.3934 262.136 92.4684 263.078 92.6278C264.019 92.7872 264.8 93.0122 265.431 93.3309C266.682 93.9966 267.52 95.0466 267.953 96.4904C268.386 97.9342 268.602 99.8842 268.602 102.341C268.584 103.55 268.527 104.647 268.414 105.622Z" fill="white"/>
<path d="M476.678 110.713C475.642 110.422 474.4 110.197 472.969 110.028C471.529 109.859 469.92 109.766 468.132 109.766C464.508 109.766 461.628 110.084 459.501 110.713C457.374 111.341 455.821 112.578 454.842 114.406C454.381 115.325 454.033 116.469 453.807 117.847C453.572 119.225 453.459 120.8 453.459 122.572C453.459 126.125 453.864 128.825 454.664 130.654C455.473 132.491 456.932 133.691 459.068 134.263C460.104 134.61 461.384 134.854 462.908 134.994C464.433 135.135 466.174 135.21 468.132 135.21C471.812 135.21 474.72 134.882 476.847 134.226C478.974 133.569 480.499 132.351 481.421 130.569C481.882 129.65 482.231 128.516 482.456 127.175C482.682 125.825 482.805 124.297 482.805 122.572C482.805 118.963 482.334 116.235 481.384 114.406C480.433 112.578 478.861 111.35 476.678 110.713Z" fill="white"/>
<path d="M502.918 18.6193C499.812 13.7161 495.464 9.97534 489.882 7.39716C487.125 6.07525 484.113 5.09086 480.866 4.43459C477.609 3.77833 474.118 3.4502 470.381 3.4502C462.729 3.4502 456.019 4.75335 450.268 7.35966C444.508 9.96597 440.056 13.7348 436.885 18.6662C435.332 21.0756 434.155 23.7381 433.346 26.6632C432.536 29.5883 432.141 32.7665 432.141 36.2072C432.141 47.2137 435.454 55.3701 442.071 60.6671C448.687 65.9735 457.958 68.6173 469.864 68.6173C477.685 68.6173 484.405 67.4454 490.024 65.0922C495.642 62.739 499.962 59.1858 503.012 54.4326C504.565 52.0232 505.713 49.3043 506.466 46.2668C507.209 43.2292 507.586 39.8729 507.586 36.2072C507.576 29.382 506.024 23.5131 502.918 18.6193ZM482.579 41.1479C482.438 42.6667 482.193 43.9417 481.845 44.973C481.271 47.0918 480.066 48.5543 478.221 49.3606C476.376 50.1669 473.675 50.57 470.108 50.57C468.329 50.57 466.739 50.4575 465.365 50.2231C463.981 49.9981 462.833 49.6512 461.911 49.1918C460.066 48.2168 458.833 46.6699 458.202 44.5511C457.572 42.4323 457.252 39.5635 457.252 35.954C457.252 34.1821 457.336 32.579 457.515 31.1446C457.685 29.7102 457.92 28.482 458.202 27.4414C458.833 25.2663 460.075 23.7006 461.911 22.7538C463.755 21.8069 466.485 21.3381 470.108 21.3381C471.831 21.3381 473.374 21.4506 474.729 21.685C476.085 21.91 477.224 22.2569 478.136 22.7163C479.925 23.635 481.148 25.1538 481.807 27.2726C482.466 29.3914 482.805 32.2883 482.805 35.954C482.795 37.8947 482.72 39.6291 482.579 41.1479Z" fill="white"/>
<path d="M433.948 74.4304C431.191 73.1085 428.179 72.1241 424.932 71.4678C421.675 70.8115 418.184 70.4834 414.447 70.4834C406.795 70.4834 400.085 71.7866 394.334 74.3929C388.574 76.9992 384.122 80.768 380.951 85.6994C379.398 88.1088 378.221 90.7714 377.412 93.6964C376.602 96.6215 376.207 99.7997 376.207 103.24C376.207 114.247 379.52 122.403 386.136 127.7C392.753 133.007 402.023 135.65 413.929 135.65C421.751 135.65 428.471 134.479 434.089 132.125C439.699 129.772 444.028 126.219 447.078 121.466C448.631 119.056 449.779 116.338 450.532 113.3C451.275 110.262 451.652 106.906 451.652 103.24C451.652 96.4152 450.099 90.5557 446.993 85.6525C443.878 80.7493 439.529 77.0085 433.948 74.4304ZM426.353 107.544C426.212 109.062 425.967 110.337 425.619 111.369C425.045 113.487 423.84 114.95 421.995 115.756C420.151 116.563 417.449 116.966 413.882 116.966C412.104 116.966 410.513 116.853 409.139 116.619C407.755 116.394 406.607 116.047 405.685 115.588C403.84 114.613 402.607 113.066 401.976 110.947C401.346 108.828 401.026 105.959 401.026 102.35C401.026 100.578 401.111 98.9747 401.289 97.5403C401.459 96.1058 401.694 94.8777 401.976 93.837C402.607 91.662 403.849 90.0963 405.685 89.1494C407.529 88.2025 410.259 87.7338 413.882 87.7338C415.605 87.7338 417.148 87.8463 418.504 88.0807C419.859 88.3057 420.998 88.6526 421.911 89.1119C423.699 90.0307 424.922 91.5495 425.581 93.6683C426.24 95.7871 426.579 98.684 426.579 102.35C426.569 104.29 426.494 106.025 426.353 107.544Z" fill="white"/>
<path d="M234.795 60.836C241.355 66.0205 250.645 68.6175 262.682 68.6175C270.221 68.6175 276.885 67.5862 282.663 65.5236C288.452 63.4611 293.035 60.2173 296.433 55.8109C298.099 53.5796 299.398 51.039 300.32 48.1983C301.242 45.3576 301.76 42.1981 301.873 38.6918H275.783C275.736 39.4137 275.68 40.1075 275.605 40.7543C275.435 42.1888 275.2 43.4169 274.918 44.4576C274.287 46.6326 273.045 48.1983 271.209 49.1452C269.365 50.0921 266.635 50.5608 263.012 50.5608C261.289 50.5608 259.746 50.4483 258.391 50.2139C257.035 49.9889 255.896 49.642 254.984 49.1827C253.195 48.2639 251.972 46.7451 251.313 44.6263C250.654 42.5075 250.315 39.6106 250.315 35.9449C250.315 33.9948 250.391 32.2604 250.532 30.7416C250.673 29.2228 250.918 27.9478 251.266 26.9165C251.84 24.7977 253.045 23.3352 254.889 22.5289C256.734 21.7227 259.435 21.3195 263.002 21.3195C264.781 21.3195 266.372 21.432 267.746 21.6664C269.129 21.8914 270.278 22.2383 271.2 22.6977C273.045 23.6727 274.278 25.2196 274.908 27.3384C275.407 28.9978 275.708 31.1166 275.812 33.6948H301.864C301.628 26.8697 299.849 21.2258 296.508 16.7538C293.167 12.2818 288.621 8.92551 282.871 6.69421C280.047 5.60669 276.998 4.79105 273.722 4.24728C270.438 3.70352 266.927 3.43164 263.191 3.43164C255.539 3.43164 248.828 4.75355 243.078 7.38798C237.318 10.0224 232.866 13.81 229.694 18.7414C228.141 21.207 226.965 23.8977 226.155 26.8228C225.346 29.7479 224.951 32.926 224.951 36.3668C224.96 47.4951 228.235 55.6516 234.795 60.836Z" fill="white"/>
<path d="M180.584 51.7608H188.094C190.569 51.7608 192.235 52.1452 193.101 52.9233C193.967 53.7015 194.4 55.2015 194.4 57.4422V62.8611C194.4 63.6111 194.569 64.3705 194.918 65.1392C195.266 65.9174 195.868 66.5268 196.734 66.9861H225.308C224.386 66.5268 223.671 65.8705 223.153 65.008C222.635 64.1455 222.372 63.1704 222.372 62.0829V58.1266C222.372 54.9203 222.108 52.2389 221.591 50.0826C221.073 47.9357 220.094 46.1732 218.654 44.795C217.967 44.1669 217.082 43.595 216.019 43.0794C214.955 42.5637 213.704 42.1325 212.264 41.7856C216.179 40.2949 219.021 38.2605 220.809 35.6823C222.588 33.1041 223.482 29.9166 223.482 26.1384C223.482 21.3851 222.475 17.4382 220.461 14.3162C218.447 11.1943 215.049 8.88798 210.278 7.39732C207.859 6.59105 204.998 6.00979 201.685 5.63478C198.372 5.25977 194.616 5.07227 190.419 5.07227H154.334V66.9861H180.574V51.7608H180.584ZM179.332 29.0166C179.332 27.8071 179.388 26.7196 179.511 25.7446C179.624 24.7696 179.784 23.9352 179.981 23.232C180.414 21.7508 181.252 20.6914 182.504 20.0445C183.755 19.407 185.619 19.0788 188.085 19.0788C189.261 19.0788 190.306 19.1538 191.228 19.3132C192.151 19.4726 192.922 19.707 193.544 20.0163C194.758 20.6445 195.586 21.6758 196.038 23.1195C196.489 24.5633 196.715 26.5321 196.715 29.0259C196.715 30.3572 196.668 31.5291 196.565 32.5698C196.471 33.601 196.301 34.4729 196.066 35.1761C195.671 36.6198 194.852 37.6136 193.6 38.1574C192.348 38.7011 190.504 38.973 188.075 38.973C186.861 38.973 185.788 38.898 184.847 38.7386C183.906 38.5793 183.125 38.3543 182.494 38.0355C181.242 37.3699 180.405 36.3198 179.972 34.8761C179.548 33.4229 179.332 31.4729 179.332 29.0166Z" fill="white"/>
<path d="M319.737 5.07227L294.871 66.9861H322.842L325.346 59.2516H345.628L348.132 66.9861H376.019L351.849 5.07227H319.737ZM343.765 37.4824C343.652 38.4574 343.492 39.2918 343.294 39.9949C342.861 41.4762 342.024 42.5356 340.772 43.1825C339.52 43.82 337.657 44.1481 335.191 44.1481C334.014 44.1481 332.969 44.0731 332.047 43.9138C331.125 43.7544 330.353 43.52 329.732 43.2106C328.518 42.5825 327.689 41.5512 327.238 40.1074C326.786 38.6636 326.56 36.6948 326.56 34.201C326.56 32.8698 326.607 31.6979 326.711 30.6572C326.805 29.6259 326.974 28.754 327.209 28.0509C327.605 26.6071 328.424 25.6133 329.675 25.0696C330.927 24.5258 332.772 24.2539 335.2 24.2539C336.414 24.2539 337.487 24.3289 338.428 24.4883C339.369 24.6477 340.151 24.8727 340.781 25.1915C342.033 25.8571 342.871 26.9071 343.304 28.3509C343.737 29.7947 343.953 31.7447 343.953 34.201C343.944 35.4198 343.878 36.5073 343.765 37.4824Z" fill="white"/>
<path d="M148.217 132.041C147.699 131.179 147.435 130.204 147.435 129.116V125.16C147.435 121.953 147.172 119.272 146.654 117.116C146.137 114.969 145.158 113.206 143.718 111.828C143.031 111.2 142.146 110.628 141.082 110.113C140.019 109.597 138.767 109.166 137.327 108.819C141.242 107.328 144.085 105.294 145.873 102.716C147.652 100.137 148.546 96.9498 148.546 93.1716C148.546 88.4183 147.539 84.4714 145.525 81.3494C143.511 78.2275 140.113 75.9212 135.341 74.4305C132.922 73.6242 130.061 73.043 126.748 72.668C123.435 72.293 119.68 72.1055 115.482 72.1055H79.4165V134.019H105.657V118.803H113.167C115.642 118.803 117.308 119.188 118.174 119.966C119.04 120.744 119.473 122.244 119.473 124.485V129.904C119.473 130.654 119.642 131.413 119.991 132.182C120.339 132.96 120.941 133.569 121.807 134.029H150.381C149.449 133.56 148.734 132.904 148.217 132.041ZM121.506 99.7998C121.412 100.831 121.242 101.703 121.007 102.406C120.612 103.85 119.793 104.844 118.541 105.387C117.289 105.931 115.445 106.203 113.017 106.203C111.802 106.203 110.729 106.128 109.788 105.969C108.847 105.809 108.066 105.584 107.435 105.266C106.184 104.6 105.346 103.55 104.913 102.106C104.48 100.662 104.264 98.7123 104.264 96.256C104.264 95.0466 104.32 93.9591 104.442 92.9841C104.555 92.009 104.715 91.1746 104.913 90.4715C105.346 88.9902 106.184 87.9308 107.435 87.2839C108.687 86.6464 110.551 86.3183 113.017 86.3183C114.193 86.3183 115.238 86.3933 116.16 86.5527C117.082 86.712 117.854 86.9464 118.475 87.2558C119.689 87.8839 120.518 88.9152 120.969 90.359C121.421 91.8028 121.647 93.7716 121.647 96.2654C121.647 97.5873 121.6 98.7592 121.506 99.7998Z" fill="white"/>
<path d="M224.612 116.046C224.612 111.865 223.407 108.678 220.988 106.503C218.569 104.327 214.776 102.781 209.591 101.862C213.732 100.999 216.96 99.5555 219.256 97.5211C221.553 95.4867 222.711 92.6366 222.711 88.9615C222.711 85.1177 221.704 81.9676 219.689 79.5019C217.675 77.0362 214.391 75.1706 209.845 73.9143C207.605 73.3424 204.969 72.9018 201.948 72.583C198.927 72.2643 195.52 72.1143 191.718 72.1143H153.732V134.028H192.922C202.993 134.028 210.795 132.622 216.32 129.819C221.845 126.997 224.612 122.412 224.612 116.046ZM196.536 118.343C196.424 119.318 196.264 120.153 196.066 120.856C195.633 122.337 194.795 123.397 193.544 124.044C192.292 124.681 190.428 125.009 187.962 125.009C186.786 125.009 185.741 124.934 184.819 124.775C183.896 124.615 183.125 124.381 182.504 124.072C181.289 123.444 180.461 122.412 180.009 120.968C179.558 119.525 179.332 117.556 179.332 115.062C179.332 113.731 179.379 112.559 179.482 111.518C179.576 110.487 179.746 109.615 179.981 108.912C180.376 107.468 181.195 106.474 182.447 105.931C183.699 105.387 185.544 105.115 187.972 105.115C189.186 105.115 190.259 105.19 191.2 105.349C192.141 105.509 192.922 105.734 193.553 106.053C194.805 106.718 195.642 107.768 196.075 109.212C196.508 110.656 196.725 112.606 196.725 115.062C196.715 116.281 196.649 117.368 196.536 118.343ZM196.565 94.0241C196.471 95.0554 196.301 95.9273 196.066 96.6304C195.671 98.0742 194.852 99.068 193.6 99.6117C192.348 100.156 190.504 100.427 188.075 100.427C186.861 100.427 185.788 100.352 184.847 100.193C183.906 100.034 183.125 99.8086 182.494 99.4899C181.242 98.8242 180.405 97.7742 179.972 96.3304C179.539 94.8866 179.322 92.9366 179.322 90.4803C179.322 89.2709 179.379 88.1834 179.501 87.2083C179.614 86.2333 179.774 85.3989 179.972 84.6958C180.405 83.2145 181.242 82.1551 182.494 81.5082C183.746 80.8707 185.609 80.5426 188.075 80.5426C189.252 80.5426 190.296 80.6176 191.219 80.777C192.141 80.9363 192.913 81.1707 193.534 81.4801C194.748 82.1082 195.576 83.1395 196.028 84.5833C196.48 86.0271 196.706 87.9959 196.706 90.4897C196.715 91.8116 196.659 92.9929 196.565 94.0241Z" fill="white"/>
</svg>
