<svg width="60" height="60" viewBox="0 0 60 60" fill="none" xmlns="http://www.w3.org/2000/svg">
<g clip-path="url(#clip0_41_111)">
<path d="M50.5045 50.5051C61.8291 39.1804 61.8291 20.8196 50.5045 9.49495C39.1798 -1.82968 20.819 -1.82968 9.49437 9.49495C-1.83026 20.8196 -1.83026 39.1804 9.49437 50.5051C20.819 61.8297 39.1798 61.8297 50.5045 50.5051Z" fill="white"/>
<path fill-rule="evenodd" clip-rule="evenodd" d="M21.4718 11.5273H38.5303C44.0105 11.5273 48.5169 16.0359 48.5169 21.5139V38.4835C48.5169 43.9637 44.0083 48.4701 38.5303 48.4701H21.4718C15.9917 48.4701 11.4852 43.9616 11.4852 38.4835V21.5139C11.4831 16.0359 15.9917 11.5273 21.4718 11.5273ZM39.9443 17.979C41.0936 17.979 42.0652 18.9506 42.0652 20.1C42.0652 21.2494 41.0936 22.2209 39.9443 22.2209C38.706 22.2209 37.8233 21.2494 37.8233 20.1C37.8233 18.9527 38.706 17.979 39.9443 17.979ZM29.9556 19.9243H30.0445C35.5246 19.9243 40.12 24.5197 40.12 29.9998C40.12 35.5688 35.5246 40.0753 30.0445 40.0753H29.9556C24.4754 40.0753 19.969 35.5667 19.969 29.9998C19.969 24.5197 24.4754 19.9243 29.9556 19.9243ZM29.9556 23.3724H30.0445C33.6683 23.3724 36.674 26.3781 36.674 30.0019C36.674 33.7146 33.6683 36.7182 30.0445 36.7182H29.9556C26.3318 36.7182 23.3261 33.7125 23.3261 30.0019C23.3282 26.376 26.3318 23.3724 29.9556 23.3724ZM21.5607 14.7087H38.4414C42.243 14.7087 45.3355 17.8012 45.3355 21.6028V38.3967C45.3355 42.1983 42.243 45.2908 38.4414 45.2908H21.5607C17.7591 45.2908 14.6666 42.1983 14.6666 38.3967V21.6028C14.6666 17.8034 17.7591 14.7087 21.5607 14.7087Z" fill="black"/>
</g>
<defs>
<clipPath id="clip0_41_111">
<rect width="60" height="60" fill="white"/>
</clipPath>
</defs>
</svg>
