<svg width="3557" height="114" viewBox="0 0 3557 114" fill="none" xmlns="http://www.w3.org/2000/svg">
<path d="M46.3735 63.8046L65.4546 86.4681H68.5864L88.5688 63.5067V110.178H134.79V2.82617H93.1901L67.9906 34.4344L42.0501 2.82617H0V110.178H46.3735V63.8046Z" fill="white"/>
<path d="M188.763 66.1955H246.465V44.7235H188.763V37.4135H249.146V2.82617H144.33V110.178H250.49V74.0937H188.763V66.1955Z" fill="white"/>
<path d="M654.554 110.178H702.264V44.1277H733.872V2.82617H623.541V44.1277H654.554V110.178Z" fill="white"/>
<path d="M859.419 26.3071C854.049 17.8054 846.548 11.3203 836.908 6.85177C832.134 4.56784 826.94 2.84917 821.326 1.71103C815.711 0.572891 809.669 0 803.207 0C789.985 0 778.405 2.26101 768.467 6.78302C758.529 11.305 750.822 17.8436 745.353 26.3911C742.672 30.5694 740.632 35.1907 739.242 40.2551C737.852 45.3271 737.157 50.8421 737.157 56.8078C737.157 75.8965 742.87 90.0354 754.305 99.2246C765.733 108.421 781.743 113.02 802.313 113.02C815.834 113.02 827.437 110.98 837.13 106.909C846.823 102.838 854.301 96.6733 859.572 88.4237C862.253 84.2454 864.247 79.5324 865.538 74.2618C866.829 68.9912 867.478 63.1783 867.478 56.8154C867.47 44.9757 864.789 34.8088 859.419 26.3071ZM824.282 65.3782C824.03 68.0135 823.61 70.2211 823.014 72.0161C822.021 75.6979 819.936 78.2262 816.75 79.6165C813.573 81.0143 808.898 81.7094 802.734 81.7094C799.655 81.7094 796.921 81.5108 794.537 81.1136C792.154 80.7164 790.161 80.1206 788.572 79.3262C785.394 77.6381 783.255 74.9569 782.163 71.2752C781.071 67.601 780.521 62.6283 780.521 56.3647C780.521 53.2864 780.673 50.506 780.971 48.0158C781.269 45.5333 781.667 43.3945 782.163 41.5995C783.255 37.826 785.394 35.1143 788.572 33.4721C791.757 31.8374 796.478 31.0125 802.734 31.0125C805.72 31.0125 808.378 31.2111 810.716 31.6083C813.053 32.0055 815.016 32.6013 816.605 33.3957C819.683 34.9921 821.799 37.6274 822.938 41.3016C824.076 44.9833 824.656 50.0018 824.656 56.3571C824.656 59.741 824.526 62.7429 824.282 65.3782Z" fill="white"/>
<path d="M396.31 99.5148C407.646 108.513 423.694 113.012 444.471 113.012C457.495 113.012 468.998 111.225 478.99 107.642C488.981 104.067 496.902 98.4454 502.768 90.7916C505.648 86.9113 507.886 82.5191 509.475 77.5999C511.064 72.6807 511.958 67.1886 512.156 61.1236H467.096C467.02 62.3763 466.921 63.5755 466.783 64.706C466.485 67.1886 466.088 69.3273 465.592 71.1224C464.499 74.8958 462.361 77.6075 459.183 79.2498C455.998 80.8844 451.277 81.7094 445.021 81.7094C442.034 81.7094 439.376 81.5108 437.039 81.1136C434.701 80.7164 432.738 80.1206 431.149 79.3262C428.071 77.7297 425.955 75.0944 424.817 71.4203C423.679 67.7385 423.098 62.72 423.098 56.3647C423.098 52.9809 423.221 49.9789 423.473 47.3436C423.725 44.7083 424.145 42.5008 424.741 40.7058C425.734 37.024 427.819 34.4956 431.004 33.1054C434.182 31.7076 438.857 31.0125 445.021 31.0125C448.099 31.0125 450.834 31.2111 453.217 31.6083C455.6 32.0055 457.594 32.6013 459.183 33.3957C462.361 35.0838 464.499 37.7649 465.592 41.4467C466.447 44.3264 466.967 48.0082 467.158 52.4767H512.164C511.767 40.6523 508.681 30.8597 502.921 23.1066C497.154 15.3535 489.302 9.54053 479.364 5.66015C474.491 3.77344 469.228 2.36031 463.56 1.41313C457.892 0.465951 451.827 0 445.372 0C432.15 0 420.57 2.29156 410.632 6.8594C400.695 11.4349 392.987 17.9964 387.518 26.5439C384.837 30.8215 382.798 35.4886 381.407 40.5606C380.017 45.6326 379.322 51.1476 379.322 57.1133C379.314 76.3854 384.982 90.5243 396.31 99.5148Z" fill="white"/>
<path d="M302.677 83.7872H315.647C319.917 83.7872 322.804 84.4594 324.294 85.8038C325.783 87.1481 326.532 89.7529 326.532 93.6333V103.029C326.532 104.32 326.83 105.641 327.426 106.978C328.022 108.322 329.068 109.392 330.558 110.186H379.91C378.321 109.392 377.076 108.246 376.183 106.756C375.289 105.267 374.838 103.579 374.838 101.684V94.8249C374.838 89.2564 374.387 84.6121 373.494 80.8845C372.6 77.1569 370.904 74.1015 368.422 71.7183C367.23 70.626 365.71 69.633 363.877 68.7393C362.036 67.8456 359.874 67.097 357.392 66.5012C364.152 63.9193 369.071 60.3903 372.149 55.9142C375.228 51.438 376.771 45.923 376.771 39.3615C376.771 31.1118 375.029 24.2754 371.554 18.8596C368.07 13.4439 362.212 9.44132 353.962 6.85949C349.784 5.46928 344.842 4.45335 339.128 3.80408C333.414 3.16244 326.922 2.83398 319.673 2.83398H257.35V110.186H302.677V83.7872ZM300.508 44.3418C300.508 42.2488 300.607 40.3545 300.813 38.6664C301.012 36.9782 301.287 35.5193 301.623 34.3047C302.371 31.7382 303.823 29.8897 305.984 28.7744C308.146 27.6592 311.362 27.1016 315.617 27.1016C317.648 27.1016 319.459 27.2391 321.048 27.5065C322.636 27.7738 323.973 28.1863 325.05 28.721C327.143 29.8057 328.587 31.6007 329.358 34.0985C330.137 36.6039 330.527 40.0184 330.527 44.3418C330.527 46.641 330.443 48.6881 330.275 50.4832C330.107 52.2782 329.817 53.7754 329.412 54.9975C328.74 57.503 327.319 59.2217 325.149 60.1688C322.988 61.116 319.81 61.5896 315.617 61.5896C313.524 61.5896 311.66 61.4521 310.04 61.1848C308.413 60.9174 307.069 60.5126 305.984 59.9702C303.823 58.8244 302.371 56.9988 301.623 54.4934C300.882 51.988 300.508 48.6041 300.508 44.3418Z" fill="white"/>
<path d="M543.023 2.82617L500.08 110.178H548.386L552.709 96.7572H587.747L592.071 110.178H640.231L598.494 2.82617H543.023ZM584.524 59.0305C584.325 60.7186 584.05 62.1776 583.714 63.3921C582.965 65.9587 581.514 67.8072 579.352 68.9224C577.191 70.0376 573.975 70.5953 569.72 70.5953C567.688 70.5953 565.886 70.4578 564.289 70.1904C562.7 69.9231 561.364 69.5106 560.287 68.9759C558.194 67.8912 556.75 66.0962 555.978 63.5984C555.199 61.0929 554.81 57.6785 554.81 53.3551C554.81 51.0559 554.894 49.0088 555.062 47.2137C555.23 45.4186 555.52 43.9215 555.925 42.6993C556.597 40.1939 558.018 38.4752 560.187 37.528C562.349 36.5809 565.527 36.1073 569.72 36.1073C571.813 36.1073 573.677 36.2448 575.296 36.5121C576.923 36.7795 578.268 37.1843 579.352 37.7266C581.514 38.8724 582.965 40.698 583.714 43.2035C584.455 45.7013 584.829 49.0851 584.829 53.3474C584.829 55.448 584.722 57.3424 584.524 59.0305Z" fill="white"/>
<path d="M975.769 55.1578C975.769 60.9249 974.776 64.9733 972.79 67.3107C970.804 69.6481 967.917 70.8168 964.143 70.8168C960.164 70.8168 957.185 69.6481 955.199 67.3107C953.213 64.9733 952.22 60.9249 952.22 55.1578V2.82617H903.761V55.1578C903.761 68.3801 905.67 79.265 909.505 87.8125C913.332 96.36 919.618 102.723 928.365 106.901C932.734 108.887 937.882 110.407 943.794 111.446C949.707 112.493 956.39 113.012 963.846 113.012C983.423 113.012 998.387 108.467 1008.72 99.3696C1019.06 90.2721 1024.23 75.5374 1024.23 55.1578V2.82617H975.769V55.1578Z" fill="white"/>
<path d="M1494.34 50.5365L1457.07 2.82617H1412.49V105.19L1372.68 2.82617H1317.21L1274.27 110.178H1322.57L1326.9 96.7572H1361.94L1366.26 110.178H1412.48H1414.42H1457.51V60.2298L1495.98 110.178H1539.22V2.82617H1494.34V50.5365ZM1359.16 60.9325C1358.96 62.6206 1358.69 64.0796 1358.35 65.2941C1357.6 67.8607 1356.15 69.7092 1353.99 70.8244C1351.83 71.9396 1348.61 72.4973 1344.36 72.4973C1342.33 72.4973 1340.52 72.3598 1338.93 72.0924C1337.34 71.8251 1336 71.4126 1334.93 70.8779C1332.83 69.7932 1331.39 67.9982 1330.62 65.5004C1329.84 62.9949 1329.45 59.5805 1329.45 55.2571C1329.45 52.9579 1329.53 50.9108 1329.7 49.1157C1329.87 47.3206 1330.16 45.8235 1330.56 44.6013C1331.24 42.0959 1332.66 40.3772 1334.83 39.43C1336.99 38.4829 1340.17 38.0093 1344.36 38.0093C1346.45 38.0093 1348.32 38.1468 1349.94 38.4141C1351.56 38.6815 1352.91 39.0863 1353.99 39.6286C1356.15 40.7744 1357.6 42.6 1358.35 45.1055C1359.09 47.6033 1359.47 50.9871 1359.47 55.2494C1359.47 57.35 1359.37 59.2444 1359.16 60.9325Z" fill="white"/>
<path d="M1718.88 69.7702C1717.1 69.2737 1714.96 68.8765 1712.48 68.5786C1709.99 68.2807 1707.2 68.1279 1704.13 68.1279C1697.86 68.1279 1692.89 68.6779 1689.22 69.7702C1685.53 70.8625 1682.85 73.0013 1681.17 76.1789C1680.37 77.7678 1679.77 79.7538 1679.38 82.1446C1678.98 84.5279 1678.78 87.2625 1678.78 90.3484C1678.78 96.5127 1679.48 101.188 1680.87 104.365C1682.26 107.55 1684.79 109.636 1688.48 110.629C1690.26 111.225 1692.48 111.645 1695.11 111.897C1697.75 112.141 1700.75 112.271 1704.13 112.271C1710.5 112.271 1715.52 111.698 1719.19 110.56C1722.86 109.422 1725.5 107.306 1727.1 104.22C1727.89 102.631 1728.49 100.668 1728.88 98.3307C1729.28 95.9933 1729.48 93.3351 1729.48 90.3561C1729.48 84.0925 1728.66 79.3719 1727.02 76.1942C1725.37 73.0013 1722.67 70.8702 1718.88 69.7702Z" fill="white"/>
<path d="M1645.08 6.85177C1640.31 4.56784 1635.11 2.84917 1629.5 1.71103C1623.88 0.572891 1617.84 0 1611.38 0C1598.16 0 1586.58 2.26101 1576.64 6.78302C1566.7 11.305 1558.99 17.8436 1553.53 26.3911C1550.84 30.5694 1548.8 35.1907 1547.41 40.2551C1546.02 45.3271 1545.33 50.8421 1545.33 56.8078C1545.33 75.8965 1551.04 90.0354 1562.48 99.2246C1573.9 108.421 1589.92 113.02 1610.49 113.02C1624.01 113.02 1635.61 110.98 1645.3 106.909C1655 102.838 1662.47 96.6733 1667.74 88.4237C1670.43 84.2454 1672.42 79.5324 1673.71 74.2618C1675 68.9912 1675.65 63.1783 1675.65 56.8154C1675.65 44.991 1672.97 34.8241 1667.6 26.3224C1662.23 17.8131 1654.72 11.3279 1645.08 6.85177ZM1631.97 64.2783C1631.71 66.9136 1631.29 69.1211 1630.7 70.9162C1629.7 74.5979 1627.62 77.1263 1624.43 78.5165C1621.26 79.9144 1616.58 80.6095 1610.42 80.6095C1607.34 80.6095 1604.6 80.4109 1602.22 80.0137C1599.84 79.6164 1597.84 79.0206 1596.26 78.2262C1593.08 76.5381 1590.94 73.857 1589.85 70.1752C1588.75 66.5011 1588.2 61.5284 1588.2 55.2648C1588.2 52.1865 1588.36 49.406 1588.65 46.9159C1588.95 44.4334 1589.35 42.2946 1589.85 40.4995C1590.94 36.7261 1593.08 34.0144 1596.26 32.3721C1599.44 30.7375 1604.16 29.9125 1610.42 29.9125C1613.4 29.9125 1616.06 30.1111 1618.4 30.5083C1620.74 30.9055 1622.7 31.5013 1624.29 32.2957C1627.37 33.8922 1629.48 36.5275 1630.62 40.2016C1631.76 43.8834 1632.34 48.9019 1632.34 55.2572C1632.34 58.6334 1632.21 61.643 1631.97 64.2783Z" fill="white"/>
<path d="M1151.55 106.748C1150.66 105.259 1150.21 103.571 1150.21 101.676V94.817C1150.21 89.2486 1149.76 84.6043 1148.87 80.8767C1147.97 77.1491 1146.28 74.0937 1143.79 71.7105C1142.6 70.6182 1141.08 69.6252 1139.25 68.7314C1137.41 67.8377 1135.25 67.0892 1132.76 66.4934C1139.52 63.9115 1144.44 60.3825 1147.52 55.9064C1150.6 51.4302 1152.14 45.9151 1152.14 39.3536C1152.14 31.104 1150.4 24.2675 1146.93 18.8518C1143.44 13.4361 1137.58 9.4335 1129.33 6.85168C1125.16 5.46147 1120.21 4.44554 1114.5 3.79627C1108.79 3.15463 1102.29 2.82617 1095.04 2.82617H1032.72V110.178H1078.05V83.787H1091.02C1095.29 83.787 1098.18 84.4592 1099.67 85.8036C1101.16 87.148 1101.9 89.7527 1101.9 93.6331V103.028C1101.9 104.319 1102.2 105.641 1102.8 106.978C1103.39 108.322 1104.44 109.391 1105.93 110.186H1155.28C1153.69 109.384 1152.46 108.238 1151.55 106.748ZM1105.42 50.8344C1105.25 52.6294 1104.96 54.1266 1104.55 55.3487C1103.88 57.8542 1102.46 59.5728 1100.29 60.52C1098.13 61.4672 1094.95 61.9408 1090.76 61.9408C1088.67 61.9408 1086.8 61.8033 1085.18 61.5359C1083.56 61.2686 1082.21 60.8638 1081.13 60.3214C1078.97 59.1756 1077.51 57.35 1076.77 54.8446C1076.02 52.3468 1075.65 48.9629 1075.65 44.7006C1075.65 42.6077 1075.75 40.7133 1075.96 39.0252C1076.15 37.3371 1076.43 35.8781 1076.77 34.6636C1077.51 32.097 1078.97 30.2485 1081.13 29.1333C1083.29 28.0181 1086.51 27.4604 1090.76 27.4604C1092.79 27.4604 1094.6 27.5979 1096.19 27.8653C1097.78 28.1326 1099.12 28.5451 1100.19 29.0798C1102.29 30.1645 1103.73 31.9595 1104.5 34.4573C1105.28 36.9628 1105.67 40.3772 1105.67 44.7006C1105.67 46.9998 1105.59 49.0469 1105.42 50.8344Z" fill="white"/>
<path d="M1283.51 79.0132C1283.51 71.7566 1281.43 66.2416 1277.25 62.4605C1273.07 58.6871 1266.51 55.9983 1257.56 54.4095C1264.72 52.92 1270.29 50.4069 1274.26 46.8779C1278.23 43.3489 1280.23 38.4068 1280.23 32.0439C1280.23 25.3831 1278.48 19.9215 1275.01 15.6439C1271.53 11.374 1265.87 8.14291 1258.01 5.95065C1254.13 4.95764 1249.59 4.18615 1244.37 3.63617C1239.15 3.09384 1233.26 2.81885 1226.7 2.81885H1161.1V110.171H1228.79C1246.18 110.171 1259.66 107.734 1269.2 102.868C1278.74 98.0026 1283.51 90.0509 1283.51 79.0132ZM1235.02 83.0005C1234.82 84.6887 1234.55 86.1476 1234.21 87.3621C1233.46 89.9287 1232.01 91.7772 1229.85 92.8924C1227.69 94.0077 1224.47 94.5653 1220.22 94.5653C1218.19 94.5653 1216.38 94.4278 1214.79 94.1604C1213.2 93.8931 1211.86 93.4806 1210.78 92.9459C1208.69 91.8613 1207.25 90.0662 1206.48 87.5684C1205.7 85.063 1205.31 81.6485 1205.31 77.3251C1205.31 75.0259 1205.39 72.9788 1205.56 71.1837C1205.73 69.3887 1206.02 67.8915 1206.42 66.6694C1207.09 64.1639 1208.52 62.4453 1210.68 61.4981C1212.85 60.5509 1216.02 60.0773 1220.22 60.0773C1222.31 60.0773 1224.17 60.2148 1225.79 60.4821C1227.42 60.7495 1228.77 61.1543 1229.85 61.6967C1232.01 62.8425 1233.46 64.6681 1234.21 67.1735C1234.95 69.6713 1235.33 73.0552 1235.33 77.3175C1235.33 79.4181 1235.22 81.3124 1235.02 83.0005ZM1235.07 40.8282C1234.9 42.6233 1234.61 44.1204 1234.2 45.3426C1233.53 47.848 1232.11 49.5667 1229.94 50.5139C1227.78 51.461 1224.6 51.9346 1220.41 51.9346C1218.32 51.9346 1216.45 51.7971 1214.83 51.5298C1213.21 51.2624 1211.86 50.8576 1210.78 50.3153C1208.61 49.1695 1207.16 47.3439 1206.41 44.8384C1205.67 42.3406 1205.3 38.9568 1205.3 34.6945C1205.3 32.6015 1205.4 30.7071 1205.61 29.019C1205.8 27.3309 1206.08 25.8719 1206.41 24.6574C1207.16 22.0909 1208.61 20.2423 1210.78 19.1271C1212.94 18.0119 1216.15 17.4543 1220.41 17.4543C1222.44 17.4543 1224.25 17.5918 1225.84 17.8591C1227.43 18.1265 1228.77 18.539 1229.84 19.0737C1231.94 20.1583 1233.38 21.9534 1234.15 24.4512C1234.93 26.9566 1235.32 30.371 1235.32 34.6945C1235.33 36.9937 1235.24 39.0408 1235.07 40.8282Z" fill="white"/>
<path d="M1873.85 63.8046L1892.93 86.4681H1896.07L1916.05 63.5067V110.178H1962.27V2.82617H1920.67L1895.47 34.4344L1869.53 2.82617H1827.48V110.178H1873.85V63.8046Z" fill="white"/>
<path d="M2016.24 66.1955H2073.94V44.7235H2016.24V37.4135H2076.63V2.82617H1971.81V110.178H2077.97V74.0937H2016.24V66.1955Z" fill="white"/>
<path d="M2482.03 110.178H2529.74V44.1277H2561.35V2.82617H2451.02V44.1277H2482.03V110.178Z" fill="white"/>
<path d="M2686.9 26.3071C2681.53 17.8054 2674.03 11.3203 2664.39 6.85177C2659.61 4.56784 2654.42 2.84917 2648.8 1.71103C2643.19 0.572891 2637.15 0 2630.69 0C2617.46 0 2605.88 2.26101 2595.95 6.78302C2586.01 11.305 2578.3 17.8436 2572.83 26.3911C2570.15 30.5694 2568.11 35.1907 2566.72 40.2551C2565.33 45.3271 2564.64 50.8421 2564.64 56.8078C2564.64 75.8965 2570.35 90.0354 2581.78 99.2246C2593.21 108.421 2609.22 113.02 2629.79 113.02C2643.31 113.02 2654.92 110.98 2664.61 106.909C2674.3 102.838 2681.78 96.6733 2687.05 88.4237C2689.73 84.2454 2691.73 79.5324 2693.02 74.2618C2694.31 68.9912 2694.96 63.1783 2694.96 56.8154C2694.95 44.9757 2692.27 34.8088 2686.9 26.3071ZM2651.76 65.3782C2651.51 68.0135 2651.09 70.2211 2650.49 72.0161C2649.5 75.6979 2647.41 78.2262 2644.23 79.6165C2641.05 81.0143 2636.38 81.7094 2630.21 81.7094C2627.13 81.7094 2624.4 81.5108 2622.02 81.1136C2619.63 80.7164 2617.64 80.1206 2616.05 79.3262C2612.87 77.6381 2610.73 74.9569 2609.64 71.2752C2608.55 67.601 2608 62.6283 2608 56.3647C2608 53.2864 2608.15 50.506 2608.45 48.0158C2608.75 45.5333 2609.15 43.3945 2609.64 41.5995C2610.73 37.826 2612.87 35.1143 2616.05 33.4721C2619.24 31.8374 2623.96 31.0125 2630.21 31.0125C2633.2 31.0125 2635.86 31.2111 2638.19 31.6083C2640.53 32.0055 2642.5 32.6013 2644.08 33.3957C2647.16 34.9921 2649.28 37.6274 2650.42 41.3016C2651.55 44.9833 2652.14 50.0018 2652.14 56.3571C2652.14 59.741 2652.01 62.7429 2651.76 65.3782Z" fill="white"/>
<path d="M2223.79 99.5148C2235.12 108.513 2251.17 113.012 2271.95 113.012C2284.97 113.012 2296.48 111.225 2306.47 107.642C2316.46 104.067 2324.38 98.4454 2330.25 90.7916C2333.13 86.9113 2335.37 82.5191 2336.95 77.5999C2338.54 72.6807 2339.44 67.1886 2339.64 61.1236H2294.58C2294.5 62.3763 2294.4 63.5755 2294.26 64.706C2293.96 67.1886 2293.57 69.3273 2293.07 71.1224C2291.98 74.8958 2289.84 77.6075 2286.66 79.2498C2283.48 80.8844 2278.76 81.7094 2272.5 81.7094C2269.51 81.7094 2266.86 81.5108 2264.52 81.1136C2262.18 80.7164 2260.22 80.1206 2258.63 79.3262C2255.55 77.7297 2253.43 75.0944 2252.3 71.4203C2251.16 67.7385 2250.58 62.72 2250.58 56.3647C2250.58 52.9809 2250.7 49.9789 2250.95 47.3436C2251.2 44.7083 2251.62 42.5008 2252.22 40.7058C2253.21 37.024 2255.3 34.4956 2258.48 33.1054C2261.66 31.7076 2266.34 31.0125 2272.5 31.0125C2275.58 31.0125 2278.31 31.2111 2280.7 31.6083C2283.08 32.0055 2285.07 32.6013 2286.66 33.3957C2289.84 35.0838 2291.98 37.7649 2293.07 41.4467C2293.93 44.3264 2294.45 48.0082 2294.64 52.4767H2339.64C2339.25 40.6523 2336.16 30.8597 2330.4 23.1066C2324.63 15.3535 2316.78 9.54053 2306.84 5.66015C2301.97 3.77344 2296.71 2.36031 2291.04 1.41313C2285.37 0.465951 2279.31 0 2272.85 0C2259.63 0 2248.05 2.29156 2238.11 6.8594C2228.17 11.4349 2220.47 17.9964 2215 26.5439C2212.32 30.8215 2210.28 35.4886 2208.89 40.5606C2207.5 45.6326 2206.8 51.1476 2206.8 57.1133C2206.79 76.3854 2212.46 90.5243 2223.79 99.5148Z" fill="white"/>
<path d="M2130.16 83.7872H2143.13C2147.4 83.7872 2150.28 84.4594 2151.77 85.8038C2153.26 87.1481 2154.01 89.7529 2154.01 93.6333V103.029C2154.01 104.32 2154.31 105.641 2154.9 106.978C2155.5 108.322 2156.55 109.392 2158.04 110.186H2207.39C2205.8 109.392 2204.56 108.246 2203.66 106.756C2202.77 105.267 2202.32 103.579 2202.32 101.684V94.8249C2202.32 89.2564 2201.87 84.6121 2200.97 80.8845C2200.08 77.1569 2198.38 74.1015 2195.9 71.7183C2194.71 70.626 2193.19 69.633 2191.36 68.7393C2189.51 67.8456 2187.35 67.097 2184.87 66.5012C2191.63 63.9193 2196.55 60.3903 2199.63 55.9142C2202.71 51.438 2204.25 45.923 2204.25 39.3615C2204.25 31.1118 2202.51 24.2754 2199.03 18.8596C2195.55 13.4439 2189.69 9.44132 2181.44 6.85949C2177.26 5.46928 2172.32 4.45335 2166.61 3.80408C2160.89 3.16244 2154.4 2.83398 2147.15 2.83398H2084.83V110.186H2130.16V83.7872ZM2127.99 44.3418C2127.99 42.2488 2128.09 40.3545 2128.29 38.6664C2128.49 36.9782 2128.77 35.5193 2129.1 34.3047C2129.85 31.7382 2131.3 29.8897 2133.46 28.7744C2135.63 27.6592 2138.84 27.1016 2143.1 27.1016C2145.13 27.1016 2146.94 27.2391 2148.53 27.5065C2150.12 27.7738 2151.45 28.1863 2152.53 28.721C2154.62 29.8057 2156.07 31.6007 2156.84 34.0985C2157.62 36.6039 2158.01 40.0184 2158.01 44.3418C2158.01 46.641 2157.92 48.6881 2157.75 50.4832C2157.59 52.2782 2157.3 53.7754 2156.89 54.9975C2156.22 57.503 2154.8 59.2217 2152.63 60.1688C2150.47 61.116 2147.29 61.5896 2143.1 61.5896C2141 61.5896 2139.14 61.4521 2137.52 61.1848C2135.89 60.9174 2134.55 60.5126 2133.46 59.9702C2131.3 58.8244 2129.85 56.9988 2129.1 54.4934C2128.36 51.988 2127.99 48.6041 2127.99 44.3418Z" fill="white"/>
<path d="M2370.5 2.82617L2327.56 110.178H2375.86L2380.19 96.7572H2415.23L2419.55 110.178H2467.71L2425.97 2.82617H2370.5ZM2412 59.0305C2411.8 60.7186 2411.53 62.1776 2411.19 63.3921C2410.44 65.9587 2408.99 67.8072 2406.83 68.9224C2404.67 70.0376 2401.45 70.5953 2397.2 70.5953C2395.17 70.5953 2393.36 70.4578 2391.77 70.1904C2390.18 69.9231 2388.84 69.5106 2387.77 68.9759C2385.67 67.8912 2384.23 66.0962 2383.46 63.5984C2382.68 61.0929 2382.29 57.6785 2382.29 53.3551C2382.29 51.0559 2382.37 49.0088 2382.54 47.2137C2382.71 45.4186 2383 43.9215 2383.4 42.6993C2384.08 40.1939 2385.5 38.4752 2387.67 37.528C2389.83 36.5809 2393.01 36.1073 2397.2 36.1073C2399.29 36.1073 2401.16 36.2448 2402.78 36.5121C2404.4 36.7795 2405.75 37.1843 2406.83 37.7266C2408.99 38.8724 2410.44 40.698 2411.19 43.2035C2411.93 45.7013 2412.31 49.0851 2412.31 53.3474C2412.31 55.448 2412.2 57.3424 2412 59.0305Z" fill="white"/>
<path d="M2803.25 55.1578C2803.25 60.9249 2802.26 64.9733 2800.27 67.3107C2798.28 69.6481 2795.4 70.8168 2791.62 70.8168C2787.64 70.8168 2784.66 69.6481 2782.68 67.3107C2780.69 64.9733 2779.7 60.9249 2779.7 55.1578V2.82617H2731.24V55.1578C2731.24 68.3801 2733.15 79.265 2736.98 87.8125C2740.81 96.36 2747.1 102.723 2755.84 106.901C2760.21 108.887 2765.36 110.407 2771.27 111.446C2777.19 112.493 2783.87 113.012 2791.32 113.012C2810.9 113.012 2825.87 108.467 2836.2 99.3696C2846.54 90.2721 2851.71 75.5374 2851.71 55.1578V2.82617H2803.25V55.1578Z" fill="white"/>
<path d="M3321.82 50.5365L3284.54 2.82617H3239.97V105.19L3200.15 2.82617H3144.69L3101.75 110.178H3150.05L3154.38 96.7572H3189.41L3193.74 110.178H3239.96H3241.9H3284.99V60.2298L3323.46 110.178H3366.7V2.82617H3321.82V50.5365ZM3186.64 60.9325C3186.44 62.6206 3186.17 64.0796 3185.83 65.2941C3185.08 67.8607 3183.63 69.7092 3181.47 70.8244C3179.31 71.9396 3176.09 72.4973 3171.84 72.4973C3169.81 72.4973 3168 72.3598 3166.41 72.0924C3164.82 71.8251 3163.48 71.4126 3162.4 70.8779C3160.31 69.7932 3158.87 67.9982 3158.1 65.5004C3157.32 62.9949 3156.93 59.5805 3156.93 55.2571C3156.93 52.9579 3157.01 50.9108 3157.18 49.1157C3157.35 47.3206 3157.64 45.8235 3158.04 44.6013C3158.72 42.0959 3160.14 40.3772 3162.31 39.43C3164.47 38.4829 3167.64 38.0093 3171.84 38.0093C3173.93 38.0093 3175.79 38.1468 3177.41 38.4141C3179.04 38.6815 3180.39 39.0863 3181.47 39.6286C3183.63 40.7744 3185.08 42.6 3185.83 45.1055C3186.57 47.6033 3186.95 50.9871 3186.95 55.2494C3186.95 57.35 3186.85 59.2444 3186.64 60.9325Z" fill="white"/>
<path d="M3546.36 69.7702C3544.58 69.2737 3542.44 68.8765 3539.95 68.5786C3537.47 68.2807 3534.68 68.1279 3531.61 68.1279C3525.34 68.1279 3520.37 68.6779 3516.7 69.7702C3513.01 70.8625 3510.33 73.0013 3508.64 76.1789C3507.85 77.7678 3507.25 79.7538 3506.86 82.1446C3506.46 84.5279 3506.26 87.2625 3506.26 90.3484C3506.26 96.5127 3506.96 101.188 3508.35 104.365C3509.74 107.55 3512.27 109.636 3515.95 110.629C3517.74 111.225 3519.96 111.645 3522.59 111.897C3525.23 112.141 3528.23 112.271 3531.61 112.271C3537.98 112.271 3542.99 111.698 3546.67 110.56C3550.34 109.422 3552.98 107.306 3554.57 104.22C3555.37 102.631 3555.96 100.668 3556.36 98.3307C3556.76 95.9933 3556.96 93.3351 3556.96 90.3561C3556.96 84.0925 3556.14 79.3719 3554.5 76.1942C3552.85 73.0013 3550.14 70.8702 3546.36 69.7702Z" fill="white"/>
<path d="M3472.56 6.85177C3467.79 4.56784 3462.59 2.84917 3456.98 1.71103C3451.36 0.572891 3445.32 0 3438.86 0C3425.64 0 3414.06 2.26101 3404.12 6.78302C3394.18 11.305 3386.47 17.8436 3381 26.3911C3378.32 30.5694 3376.28 35.1907 3374.89 40.2551C3373.5 45.3271 3372.81 50.8421 3372.81 56.8078C3372.81 75.8965 3378.52 90.0354 3389.96 99.2246C3401.38 108.421 3417.39 113.02 3437.96 113.02C3451.49 113.02 3463.09 110.98 3472.78 106.909C3482.47 102.838 3489.95 96.6733 3495.22 88.4237C3497.9 84.2454 3499.9 79.5324 3501.19 74.2618C3502.48 68.9912 3503.13 63.1783 3503.13 56.8154C3503.13 44.991 3500.45 34.8241 3495.08 26.3224C3489.71 17.8131 3482.2 11.3279 3472.56 6.85177ZM3459.44 64.2783C3459.19 66.9136 3458.77 69.1211 3458.18 70.9162C3457.18 74.5979 3455.1 77.1263 3451.91 78.5165C3448.74 79.9144 3444.06 80.6095 3437.9 80.6095C3434.82 80.6095 3432.08 80.4109 3429.7 80.0137C3427.32 79.6164 3425.32 79.0206 3423.73 78.2262C3420.56 76.5381 3418.42 73.857 3417.33 70.1752C3416.23 66.5011 3415.68 61.5284 3415.68 55.2648C3415.68 52.1865 3415.84 49.406 3416.13 46.9159C3416.43 44.4334 3416.83 42.2946 3417.33 40.4995C3418.42 36.7261 3420.56 34.0144 3423.73 32.3721C3426.92 30.7375 3431.64 29.9125 3437.9 29.9125C3440.88 29.9125 3443.54 30.1111 3445.88 30.5083C3448.22 30.9055 3450.18 31.5013 3451.77 32.2957C3454.85 33.8922 3456.96 36.5275 3458.1 40.2016C3459.24 43.8834 3459.82 48.9019 3459.82 55.2572C3459.82 58.6334 3459.69 61.643 3459.44 64.2783Z" fill="white"/>
<path d="M2979.03 106.748C2978.14 105.259 2977.69 103.571 2977.69 101.676V94.817C2977.69 89.2486 2977.24 84.6043 2976.35 80.8767C2975.45 77.1491 2973.76 74.0937 2971.27 71.7105C2970.08 70.6182 2968.56 69.6252 2966.73 68.7314C2964.89 67.8377 2962.73 67.0892 2960.24 66.4934C2967 63.9115 2971.92 60.3825 2975 55.9064C2978.08 51.4302 2979.62 45.9151 2979.62 39.3536C2979.62 31.104 2977.88 24.2675 2974.4 18.8518C2970.92 13.4361 2965.06 9.4335 2956.81 6.85168C2952.64 5.46147 2947.69 4.44554 2941.98 3.79627C2936.27 3.15463 2929.77 2.82617 2922.52 2.82617H2860.2V110.178H2905.53V83.787H2918.5C2922.77 83.787 2925.66 84.4592 2927.15 85.8036C2928.63 87.148 2929.38 89.7527 2929.38 93.6331V103.028C2929.38 104.319 2929.68 105.641 2930.28 106.978C2930.87 108.322 2931.92 109.391 2933.41 110.186H2982.76C2981.17 109.384 2979.94 108.238 2979.03 106.748ZM2932.9 50.8344C2932.73 52.6294 2932.44 54.1266 2932.03 55.3487C2931.36 57.8542 2929.94 59.5728 2927.77 60.52C2925.61 61.4672 2922.43 61.9408 2918.24 61.9408C2916.15 61.9408 2914.28 61.8033 2912.66 61.5359C2911.04 61.2686 2909.69 60.8638 2908.61 60.3214C2906.44 59.1756 2904.99 57.35 2904.24 54.8446C2903.5 52.3468 2903.13 48.9629 2903.13 44.7006C2903.13 42.6077 2903.23 40.7133 2903.44 39.0252C2903.63 37.3371 2903.91 35.8781 2904.24 34.6636C2904.99 32.097 2906.44 30.2485 2908.61 29.1333C2910.77 28.0181 2913.98 27.4604 2918.24 27.4604C2920.27 27.4604 2922.08 27.5979 2923.67 27.8653C2925.26 28.1326 2926.6 28.5451 2927.67 29.0798C2929.77 30.1645 2931.21 31.9595 2931.98 34.4573C2932.76 36.9628 2933.15 40.3772 2933.15 44.7006C2933.15 46.9998 2933.07 49.0469 2932.9 50.8344Z" fill="white"/>
<path d="M3110.99 79.0132C3110.99 71.7566 3108.9 66.2416 3104.73 62.4605C3100.55 58.6871 3093.99 55.9983 3085.04 54.4095C3092.2 52.92 3097.77 50.4069 3101.74 46.8779C3105.71 43.3489 3107.71 38.4068 3107.71 32.0439C3107.71 25.3831 3105.96 19.9215 3102.49 15.6439C3099 11.374 3093.34 8.14291 3085.49 5.95065C3081.61 4.95764 3077.07 4.18615 3071.85 3.63617C3066.63 3.09384 3060.74 2.81885 3054.18 2.81885H2988.57V110.171H3056.27C3073.66 110.171 3087.13 107.734 3096.68 102.868C3106.22 98.0026 3110.99 90.0509 3110.99 79.0132ZM3062.5 83.0005C3062.3 84.6887 3062.03 86.1476 3061.69 87.3621C3060.94 89.9287 3059.49 91.7772 3057.33 92.8924C3055.17 94.0077 3051.95 94.5653 3047.7 94.5653C3045.66 94.5653 3043.85 94.4278 3042.27 94.1604C3040.68 93.8931 3039.34 93.4806 3038.26 92.9459C3036.17 91.8613 3034.73 90.0662 3033.96 87.5684C3033.18 85.063 3032.79 81.6485 3032.79 77.3251C3032.79 75.0259 3032.87 72.9788 3033.04 71.1837C3033.21 69.3887 3033.5 67.8915 3033.9 66.6694C3034.57 64.1639 3035.99 62.4453 3038.16 61.4981C3040.33 60.5509 3043.5 60.0773 3047.7 60.0773C3049.79 60.0773 3051.65 60.2148 3053.27 60.4821C3054.9 60.7495 3056.24 61.1543 3057.33 61.6967C3059.49 62.8425 3060.94 64.6681 3061.69 67.1735C3062.43 69.6713 3062.81 73.0552 3062.81 77.3175C3062.81 79.4181 3062.7 81.3124 3062.5 83.0005ZM3062.55 40.8282C3062.38 42.6233 3062.09 44.1204 3061.68 45.3426C3061.01 47.848 3059.59 49.5667 3057.42 50.5139C3055.26 51.461 3052.08 51.9346 3047.89 51.9346C3045.79 51.9346 3043.93 51.7971 3042.31 51.5298C3040.68 51.2624 3039.34 50.8576 3038.26 50.3153C3036.09 49.1695 3034.64 47.3439 3033.89 44.8384C3033.15 42.3406 3032.78 38.9568 3032.78 34.6945C3032.78 32.6015 3032.88 30.7071 3033.08 29.019C3033.28 27.3309 3033.56 25.8719 3033.89 24.6574C3034.64 22.0909 3036.09 20.2423 3038.26 19.1271C3040.42 18.0119 3043.63 17.4543 3047.89 17.4543C3049.92 17.4543 3051.73 17.5918 3053.32 17.8591C3054.91 18.1265 3056.24 18.539 3057.32 19.0737C3059.41 20.1583 3060.86 21.9534 3061.63 24.4512C3062.41 26.9566 3062.8 30.371 3062.8 34.6945C3062.81 36.9937 3062.72 39.0408 3062.55 40.8282Z" fill="white"/>
</svg>
