<svg width="1338" height="179" viewBox="0 0 1338 179" fill="none" xmlns="http://www.w3.org/2000/svg">
<path d="M0.0550685 52.7558H26.9417C26.9417 56.5818 30.3108 58.866 40.1613 58.9517C48.3653 59.1325 51.4585 57.2195 51.4585 55.3065C51.4585 54.764 52.0961 52.2038 45.7195 51.4805L35.6025 49.9292C21.1075 47.7402 1.69206 47.3785 1.69206 25.8597C1.69206 10.2702 14.0837 0.524414 40.3422 0.524414C63.6788 0.524414 79.8964 5.99691 79.0779 29.7809H52.3722C51.6393 25.9549 48.0893 23.6707 39.7045 23.6707C32.595 23.6707 30.5012 25.5837 30.5012 27.411C30.5012 27.9535 30.3204 30.4185 34.784 30.961L42.8072 32.2363C58.3967 34.787 81.2669 33.8733 81.2669 56.5723C81.2669 74.2556 67.9616 82.3644 40.1613 82.1836C11.6282 82.0979 -0.944257 73.894 0.0550685 52.7558Z" fill="#45B34D"/>
<path d="M90.5559 3.0752H162.564V26.8687H120.545V31.97H160.918V50.8334H120.545V55.8491H162.564V79.6426H90.5559V3.0752Z" fill="#45B34D"/>
<path d="M200.92 3.0752H230.909V54.6594H269.559V79.6426H200.929V3.0752H200.92Z" fill="#45B34D"/>
<path d="M275.298 41.354C275.298 16.4756 292.344 0.524414 319.592 0.524414C346.754 0.524414 363.8 16.4756 363.8 41.354C363.8 66.1468 346.754 82.1836 319.592 82.1836C292.344 82.1931 275.298 66.1468 275.298 41.354ZM334.087 41.354C334.087 31.1419 327.158 26.3165 319.592 26.3165C311.94 26.3165 305.097 31.1514 305.097 41.354C305.097 51.471 311.93 56.3915 319.592 56.3915C327.168 56.401 334.087 51.471 334.087 41.354Z" fill="#45B34D"/>
<path d="M483.833 27.9632H457.032V79.6426H427.138V27.9632H400.337V3.0752H483.824V27.9632H483.833Z" fill="#45B34D"/>
<path d="M545.268 79.6426L536.331 61.8736H520.932V79.6426H490.943V3.0752H537.245C558.935 3.0752 571.603 11.8217 571.603 33.5213C571.603 43.4575 567.406 50.567 561.667 55.1258L574.61 79.6426H545.268ZM520.932 39.7171H534.97C539.529 39.7171 541.537 37.3473 541.537 33.7973C541.537 30.2473 539.529 27.8775 534.97 27.8775H520.932V39.7171Z" fill="#45B34D"/>
<path d="M579.036 41.354C579.036 16.4756 596.082 0.524414 623.33 0.524414C650.492 0.524414 667.538 16.4756 667.538 41.354C667.538 66.1468 650.492 82.1836 623.33 82.1836C596.082 82.1931 579.036 66.1468 579.036 41.354ZM637.825 41.354C637.825 31.1419 630.896 26.3165 623.33 26.3165C615.678 26.3165 608.835 31.1514 608.835 41.354C608.835 51.471 615.668 56.3915 623.33 56.3915C630.896 56.401 637.825 51.471 637.825 41.354Z" fill="#45B34D"/>
<path d="M667.31 3.0752H698.203L713.973 51.5663H716.981L732.656 3.0752H763.549L736.396 79.6426H694.472L667.31 3.0752Z" fill="#45B34D"/>
<path d="M769.384 3.0752H799.373V79.6426H769.384V3.0752Z" fill="#45B34D"/>
<path d="M897.897 71.3434H868.46L865.909 79.6331H835.016L862.178 3.0752H904.102L931.265 79.6331H900.371L897.897 71.3434ZM891.235 49.3773L885.677 31.0563H880.661L875.103 49.3773H891.235Z" fill="#45B34D"/>
<path d="M966.879 3.0752H1004.43L1012.54 39.9931H1014.73L1022.84 3.0752H1060.4V79.6426H1031.87V53.8505H1029.6L1024.58 79.6426H1002.71L997.696 53.8505H995.422V79.6426H966.888V3.0752H966.879Z" fill="#45B34D"/>
<path d="M1072.17 3.0752H1144.18V26.8687H1102.16V31.97H1142.53V50.8334H1102.16V55.8491H1144.18V79.6426H1072.17V3.0752Z" fill="#45B34D"/>
<path d="M1155.77 3.0752H1190.04L1208.73 37.709H1211.37V3.0752H1240.54V79.6426H1207.09L1187.67 45.0088H1184.94V79.6426H1155.77V3.0752Z" fill="#45B34D"/>
<path d="M1249.5 41.354C1249.5 16.4756 1266.54 0.524414 1293.79 0.524414C1320.95 0.524414 1338 16.4756 1338 41.354C1338 66.1468 1320.95 82.1836 1293.79 82.1836C1266.54 82.1931 1249.5 66.1468 1249.5 41.354ZM1308.29 41.354C1308.29 31.1419 1301.36 26.3165 1293.79 26.3165C1286.14 26.3165 1279.3 31.1514 1279.3 41.354C1279.3 51.471 1286.13 56.3915 1293.79 56.3915C1301.36 56.401 1308.29 51.471 1308.29 41.354Z" fill="#45B34D"/>
<path d="M84.9121 124.746H58.1112V176.425H28.217V124.746H1.4256V99.8672H84.9121V124.746Z" fill="#45B34D"/>
<path d="M92.0216 99.8672H164.03V123.661H122.011V128.762H162.384V147.625H122.011V152.641H164.03V176.435H92.0216V99.8672Z" fill="#45B34D"/>
<path d="M202.395 99.8672H232.384V151.451H271.034V176.425H202.404V99.8672H202.395Z" fill="#45B34D"/>
<path d="M276.773 138.146C276.773 113.268 293.819 97.3164 321.067 97.3164C348.23 97.3164 365.275 113.268 365.275 138.146C365.275 162.939 348.23 178.976 321.067 178.976C293.819 178.976 276.773 162.939 276.773 138.146ZM335.562 138.146C335.562 127.934 328.633 123.109 321.067 123.109C313.415 123.109 306.572 127.943 306.572 138.146C306.572 148.263 313.406 153.183 321.067 153.183C328.633 153.183 335.562 148.263 335.562 138.146Z" fill="#45B34D"/>
<path d="M458.784 176.425L449.847 158.656H434.448V176.425H404.458V99.8672H450.76C472.451 99.8672 485.118 108.614 485.118 130.313C485.118 140.249 480.921 147.359 475.182 151.918L488.126 176.435H458.784V176.425ZM434.448 136.5H448.486C453.045 136.5 455.053 134.13 455.053 130.58C455.053 127.03 453.045 124.66 448.486 124.66H434.448V136.5Z" fill="#45B34D"/>
<path d="M496.339 99.8672H526.329V176.425H496.339V99.8672Z" fill="#45B34D"/>
<path d="M537.807 99.8672H575.362L583.471 136.785H585.66L593.769 99.8672H631.324V176.425H602.801V150.633H600.526L595.51 176.425H573.64L568.624 150.633H566.349V176.425H537.816V99.8672H537.807Z" fill="#45B34D"/>
<path d="M726.127 154.821C726.127 166.851 717.561 176.425 692.673 176.425H643.088V99.8672H694.672C718.646 99.8672 724.385 110.803 724.385 120.644C724.385 129.666 719.646 132.854 715.001 135.776V137.413C721.844 141.42 726.127 146.35 726.127 154.821ZM673.087 122.557V130.399H691.227C695.51 130.399 695.786 127.391 695.786 126.573C695.786 125.383 695.51 122.566 691.227 122.566H673.087V122.557ZM695.871 149.624C695.871 148.891 695.69 145.703 691.493 145.703H673.087V153.631H691.493C695.69 153.64 695.871 150.262 695.871 149.624Z" fill="#45B34D"/>
<path d="M732.114 138.146C732.114 113.268 749.159 97.3164 776.407 97.3164C803.57 97.3164 820.616 113.268 820.616 138.146C820.616 162.939 803.57 178.976 776.407 178.976C749.159 178.976 732.114 162.939 732.114 138.146ZM790.902 138.146C790.902 127.934 783.974 123.109 776.407 123.109C768.755 123.109 761.912 127.943 761.912 138.146C761.912 148.263 768.746 153.183 776.407 153.183C783.974 153.183 790.902 148.263 790.902 138.146Z" fill="#45B34D"/>
<path d="M883.878 176.425L874.941 158.656H859.542V176.425H829.553V99.8672H875.855C897.545 99.8672 910.212 108.614 910.212 130.313C910.212 140.249 906.015 147.359 900.276 151.918L913.22 176.435H883.878V176.425ZM859.542 136.5H873.58C878.139 136.5 880.147 134.13 880.147 130.58C880.147 127.03 878.139 124.66 873.58 124.66H859.542V136.5Z" fill="#45B34D"/>
<path d="M918.359 149.538H945.246C945.246 153.364 948.615 155.648 958.466 155.734C966.67 155.915 969.763 154.002 969.763 152.089C969.763 151.546 970.4 148.986 964.024 148.263L953.907 146.712C939.412 144.523 919.996 144.161 919.996 122.652C919.996 107.062 932.388 97.3164 958.637 97.3164C981.973 97.3164 998.191 102.789 997.373 126.573H970.667C969.934 122.747 966.384 120.463 957.999 120.463C950.89 120.463 948.796 122.376 948.796 124.203C948.796 124.746 948.615 127.211 953.079 127.753L961.102 129.028C976.691 131.579 999.562 130.665 999.562 153.364C999.562 171.048 986.256 179.156 958.456 178.976C929.932 178.88 917.35 170.686 918.359 149.538Z" fill="#45B34D"/>
<path d="M1008.98 99.8672H1038.97V176.425H1008.98V99.8672Z" fill="#45B34D"/>
<path d="M1107.42 168.126H1077.98L1075.43 176.415H1044.54L1071.7 99.8574H1113.63L1140.79 176.415H1109.9L1107.42 168.126ZM1100.77 146.16L1095.21 127.839H1090.2L1084.64 146.16H1100.77Z" fill="#45B34D"/>
<path d="M1146.61 99.8672H1184.17L1192.28 136.785H1194.47L1202.58 99.8672H1240.13V176.425H1211.61V150.633H1209.33L1204.32 176.425H1182.45L1177.43 150.633H1175.16V176.425H1146.62V99.8672H1146.61Z" fill="#45B34D"/>
<path d="M1249.15 138.146C1249.15 113.268 1266.19 97.3164 1293.44 97.3164C1320.6 97.3164 1337.65 113.268 1337.65 138.146C1337.65 162.939 1320.6 178.976 1293.44 178.976C1266.19 178.976 1249.15 162.939 1249.15 138.146ZM1307.93 138.146C1307.93 127.934 1301.01 123.109 1293.44 123.109C1285.79 123.109 1278.94 127.943 1278.94 138.146C1278.94 148.263 1285.78 153.183 1293.44 153.183C1301.01 153.183 1307.93 148.263 1307.93 138.146Z" fill="#45B34D"/>
</svg>
