<svg width="1920" height="93" viewBox="0 0 1920 93" fill="none" xmlns="http://www.w3.org/2000/svg">
<g clip-path="url(#clip0_29_222)">
<path d="M60.94 -0.418945H1V93.4652H60.94V-0.418945Z" fill="#45B34D"/>
<path d="M120.91 -0.418945H60.97V93.4652H120.91V-0.418945Z" fill="white"/>
<path d="M180.88 -0.418945H120.94V93.4652H180.88V-0.418945Z" fill="#45B34D"/>
<path d="M240.85 -0.418945H180.91V93.4652H240.85V-0.418945Z" fill="white"/>
<path d="M300.82 -0.418945H240.88V93.4652H300.82V-0.418945Z" fill="#45B34D"/>
<path d="M360.79 -0.418945H300.85V93.4652H360.79V-0.418945Z" fill="white"/>
<path d="M420.76 -0.418945H360.82V93.4652H420.76V-0.418945Z" fill="#45B34D"/>
<path d="M480.73 -0.418945H420.79V93.4652H480.73V-0.418945Z" fill="white"/>
<path d="M540.7 -0.418945H480.76V93.4652H540.7V-0.418945Z" fill="#45B34D"/>
<path d="M600.67 -0.418945H540.73V93.4652H600.67V-0.418945Z" fill="white"/>
<path d="M660.64 -0.418945H600.7V93.4652H660.64V-0.418945Z" fill="#45B34D"/>
<path d="M720.61 -0.418945H660.67V93.4652H720.61V-0.418945Z" fill="white"/>
<path d="M780.58 -0.418945H720.64V93.4652H780.58V-0.418945Z" fill="#45B34D"/>
<path d="M840.55 -0.418945H780.61V93.4652H840.55V-0.418945Z" fill="white"/>
<path d="M900.52 -0.418945H840.58V93.4652H900.52V-0.418945Z" fill="#45B34D"/>
<path d="M960.49 -0.418945H900.55V93.4652H960.49V-0.418945Z" fill="white"/>
<path d="M1020.46 -0.418945H960.52V93.4652H1020.46V-0.418945Z" fill="#45B34D"/>
<path d="M1080.43 -0.418945H1020.49V93.4652H1080.43V-0.418945Z" fill="white"/>
<path d="M1140.4 -0.418945H1080.46V93.4652H1140.4V-0.418945Z" fill="#45B34D"/>
<path d="M1200.37 -0.418945H1140.43V93.4652H1200.37V-0.418945Z" fill="white"/>
<path d="M1260.33 -0.418945H1200.39V93.4652H1260.33V-0.418945Z" fill="#45B34D"/>
<path d="M1320.3 -0.418945H1260.36V93.4652H1320.3V-0.418945Z" fill="white"/>
<path d="M1380.27 -0.418945H1320.33V93.4652H1380.27V-0.418945Z" fill="#45B34D"/>
<path d="M1440.24 -0.418945H1380.3V93.4652H1440.24V-0.418945Z" fill="white"/>
<path d="M1500.21 -0.418945H1440.27V93.4652H1500.21V-0.418945Z" fill="#45B34D"/>
<path d="M1560.18 -0.418945H1500.24V93.4652H1560.18V-0.418945Z" fill="white"/>
<path d="M1620.15 -0.418945H1560.21V93.4652H1620.15V-0.418945Z" fill="#45B34D"/>
<path d="M1680.12 -0.418945H1620.18V93.4652H1680.12V-0.418945Z" fill="white"/>
<path d="M1740.09 -0.418945H1680.15V93.4652H1740.09V-0.418945Z" fill="#45B34D"/>
<path d="M1800.06 -0.418945H1740.12V93.4652H1800.06V-0.418945Z" fill="white"/>
<path d="M1860.03 -0.418945H1800.09V93.4652H1860.03V-0.418945Z" fill="#45B34D"/>
<path d="M1920 -0.418945H1860.06V93.4652H1920V-0.418945Z" fill="white"/>
</g>
<defs>
<clipPath id="clip0_29_222">
<rect width="1920" height="93" fill="white"/>
</clipPath>
</defs>
</svg>
