<svg width="1920" height="230" viewBox="0 0 1920 230" fill="none" xmlns="http://www.w3.org/2000/svg">
<g clip-path="url(#clip0_29_189)">
<path d="M60.94 -1.03516H1V231.151H60.94V-1.03516Z" fill="#45B34D"/>
<path d="M120.91 -1.03516H60.97V231.151H120.91V-1.03516Z" fill="white"/>
<path d="M180.88 -1.03516H120.94V231.151H180.88V-1.03516Z" fill="#45B34D"/>
<path d="M240.85 -1.03516H180.91V231.151H240.85V-1.03516Z" fill="white"/>
<path d="M300.82 -1.03516H240.88V231.151H300.82V-1.03516Z" fill="#45B34D"/>
<path d="M360.79 -1.03516H300.85V231.151H360.79V-1.03516Z" fill="white"/>
<path d="M420.76 -1.03516H360.82V231.151H420.76V-1.03516Z" fill="#45B34D"/>
<path d="M480.73 -1.03516H420.79V231.151H480.73V-1.03516Z" fill="white"/>
<path d="M540.7 -1.03516H480.76V231.151H540.7V-1.03516Z" fill="#45B34D"/>
<path d="M600.67 -1.03516H540.73V231.151H600.67V-1.03516Z" fill="white"/>
<path d="M660.64 -1.03516H600.7V231.151H660.64V-1.03516Z" fill="#45B34D"/>
<path d="M720.61 -1.03516H660.67V231.151H720.61V-1.03516Z" fill="white"/>
<path d="M780.58 -1.03516H720.64V231.151H780.58V-1.03516Z" fill="#45B34D"/>
<path d="M840.55 -1.03516H780.61V231.151H840.55V-1.03516Z" fill="white"/>
<path d="M900.52 -1.03516H840.58V231.151H900.52V-1.03516Z" fill="#45B34D"/>
<path d="M960.49 -1.03516H900.55V231.151H960.49V-1.03516Z" fill="white"/>
<path d="M1020.46 -1.03516H960.52V231.151H1020.46V-1.03516Z" fill="#45B34D"/>
<path d="M1080.43 -1.03516H1020.49V231.151H1080.43V-1.03516Z" fill="white"/>
<path d="M1140.4 -1.03516H1080.46V231.151H1140.4V-1.03516Z" fill="#45B34D"/>
<path d="M1200.37 -1.03516H1140.43V231.151H1200.37V-1.03516Z" fill="white"/>
<path d="M1260.33 -1.03516H1200.39V231.151H1260.33V-1.03516Z" fill="#45B34D"/>
<path d="M1320.3 -1.03516H1260.36V231.151H1320.3V-1.03516Z" fill="white"/>
<path d="M1380.27 -1.03516H1320.33V231.151H1380.27V-1.03516Z" fill="#45B34D"/>
<path d="M1440.24 -1.03516H1380.3V231.151H1440.24V-1.03516Z" fill="white"/>
<path d="M1500.21 -1.03516H1440.27V231.151H1500.21V-1.03516Z" fill="#45B34D"/>
<path d="M1560.18 -1.03516H1500.24V231.151H1560.18V-1.03516Z" fill="white"/>
<path d="M1620.15 -1.03516H1560.21V231.151H1620.15V-1.03516Z" fill="#45B34D"/>
<path d="M1680.12 -1.03516H1620.18V231.151H1680.12V-1.03516Z" fill="white"/>
<path d="M1740.09 -1.03516H1680.15V231.151H1740.09V-1.03516Z" fill="#45B34D"/>
<path d="M1800.06 -1.03516H1740.12V231.151H1800.06V-1.03516Z" fill="white"/>
<path d="M1860.03 -1.03516H1800.09V231.151H1860.03V-1.03516Z" fill="#45B34D"/>
<path d="M1920 -1.03516H1860.06V231.151H1920V-1.03516Z" fill="white"/>
</g>
<defs>
<clipPath id="clip0_29_189">
<rect width="1920" height="230" fill="white"/>
</clipPath>
</defs>
</svg>
