<svg width="60" height="60" viewBox="0 0 60 60" fill="none" xmlns="http://www.w3.org/2000/svg">
<g clip-path="url(#clip0_41_107)">
<path d="M50.5044 50.5051C61.829 39.1804 61.829 20.8196 50.5044 9.49495C39.1798 -1.82968 20.8189 -1.82968 9.49431 9.49495C-1.83032 20.8196 -1.83032 39.1804 9.49431 50.5051C20.8189 61.8297 39.1798 61.8297 50.5044 50.5051Z" fill="white"/>
<path fill-rule="evenodd" clip-rule="evenodd" d="M45.2868 21.0545C43.5046 20.8111 41.9657 19.8395 40.6682 18.3811C39.1293 16.6793 38.2382 14.4102 38.3186 12.2236H36.5364H31.9177V27.2924V37.7447C31.9177 40.7419 29.4878 43.174 26.408 43.174C24.6257 43.174 23.0043 42.2829 21.9523 40.9049C21.3046 40.0138 20.9807 38.8792 20.9807 37.7447C20.9807 34.7474 23.4107 32.3154 26.4101 32.3154C26.9773 32.3154 27.5446 32.3958 28.0315 32.5588V26.0774C27.5446 25.997 26.9773 25.9145 26.4101 25.9145C26.3296 25.9145 26.2471 25.9145 26.1667 25.9145C19.6853 26.0774 14.5798 31.3438 14.5798 37.7426C14.5798 40.8224 15.7948 43.6566 17.7401 45.7628C19.9266 48.0319 23.0064 49.4903 26.4101 49.4903C32.9718 49.4903 38.3207 44.2239 38.3207 37.7426V24.456C40.7507 26.6426 43.911 27.6967 47.1516 27.4533V21.0545C46.5018 21.2154 45.8541 21.2154 45.2868 21.0545Z" fill="black"/>
</g>
<defs>
<clipPath id="clip0_41_107">
<rect width="60" height="60" fill="white"/>
</clipPath>
</defs>
</svg>
